<?xml version="1.0" encoding="UTF-8"?>
<svg version="1.1" xmlns="http://www.w3.org/2000/svg" width="512" height="512">
<path d="M0 0 C8.98415339 8.78777845 12.25154953 22.56909307 16.18164062 34.15945435 C17.92555545 39.3009872 19.69781429 44.4327821 21.46484375 49.56640625 C21.82415985 50.61293869 22.18347595 51.65947113 22.55368042 52.73771667 C26.62733006 64.58928904 30.85183943 76.38566481 35.08789062 88.17993164 C35.70582818 89.90116888 36.32366625 91.62244185 36.94140625 93.34375 C37.24849518 94.19919907 37.55558411 95.05464813 37.87197876 95.9360199 C39.90341154 101.60601329 41.90700317 107.2852659 43.89474487 112.97071838 C45.31138917 117.02238571 46.73433411 121.07183082 48.15722656 125.12130737 C48.83053892 127.04345858 49.50075799 128.96669688 50.16748047 130.8911438 C63.30105041 168.78843646 83.8430419 199.30029943 120.50976562 217.91308594 C138.44574584 226.61524199 157.35334498 230.09307366 177.1640625 230.2109375 C179.13185168 230.23182868 181.09964084 230.25273772 183.06741905 230.27463722 C187.87772428 230.32732589 192.68803071 230.37182425 197.49853516 230.40136719 C200.20614371 230.41842918 202.91347934 230.44327791 205.62094116 230.47622681 C208.15421492 230.50675103 210.68765128 230.52651239 213.22109985 230.53329468 C230.96780601 230.78364269 246.66178606 235.17854313 259.63671875 247.75 C269.69346183 258.45736417 275.08313075 270.83924243 276.125 285.5625 C276.42101727 289.14898225 276.42101727 289.14898225 279.1875 291.25 C280.4559375 292.11625 280.4559375 292.11625 281.75 293 C283.91680527 296.29519454 284.01743665 299.09669622 284.05639648 302.98681641 C284.07238388 304.19552399 284.08837128 305.40423157 284.10484314 306.64956665 C284.11020584 307.95372528 284.11556854 309.25788391 284.12109375 310.6015625 C284.13006957 311.96194554 284.13919158 313.32232762 284.14845276 314.68270874 C284.16493242 317.53572988 284.17264011 320.3886339 284.17553711 323.24169922 C284.18089887 326.87312825 284.21848891 330.50343314 284.26428127 334.13454628 C284.29424317 336.9469692 284.30126487 339.7591287 284.30226326 342.57169724 C284.30844384 344.55349358 284.33782559 346.5351746 284.36778259 348.51675415 C284.324773 357.20412131 283.10617528 364.44256163 276.91868591 370.91592407 C241.52451251 402.17393734 182.87405147 403.50092378 138.3477335 403.43590808 C135.00922724 403.43276357 131.67076127 403.43896323 128.33226085 403.44494683 C120.4644725 403.45883818 112.5967932 403.4575511 104.72900391 403.44604492 C96.64017391 403.43447652 88.55167213 403.44881912 80.46288514 403.4754414 C73.46608742 403.49759801 66.46939285 403.50423887 59.47256255 403.49836498 C55.31490249 403.49500641 51.15745462 403.49734171 46.99982452 403.51461601 C43.10879698 403.5300912 39.21826151 403.52612397 35.32725334 403.50731087 C33.90467102 403.50363188 32.48205201 403.50671338 31.05950356 403.51719666 C17.65312636 403.6084434 17.65312636 403.6084434 11.75 399 C9.82421875 396.52734375 9.82421875 396.52734375 8.4375 393.9375 C7.96699219 393.08027344 7.49648437 392.22304688 7.01171875 391.33984375 C6.59535156 390.56769531 6.17898437 389.79554688 5.75 389 C4.08147356 385.75692221 4.08147356 385.75692221 1.07980347 385.37348938 C-0.05270844 385.25579697 -1.18522034 385.13810455 -2.35205078 385.0168457 C-4.27381638 384.8069677 -4.27381638 384.8069677 -6.23440552 384.59284973 C-7.63801213 384.45353388 -9.04164855 384.31451815 -10.4453125 384.17578125 C-11.87747705 384.02432518 -13.30951372 383.87165537 -14.74142456 383.71781921 C-18.5115236 383.31608655 -22.28313713 382.93089169 -26.05529785 382.54907227 C-29.90379735 382.15658729 -33.75064297 381.74854652 -37.59765625 381.34179688 C-45.14690195 380.54593146 -52.69781448 379.76752334 -60.25 379 C-60.3826828 379.61615173 -60.5153656 380.23230347 -60.65206909 380.86712646 C-60.82860016 381.67635559 -61.00513123 382.48558472 -61.18701172 383.31933594 C-61.36094452 384.12111267 -61.53487732 384.9228894 -61.71408081 385.7489624 C-62.34639052 388.40487202 -63.20667598 390.78263039 -64.375 393.25 C-64.72820312 394.03890625 -65.08140625 394.8278125 -65.4453125 395.640625 C-68.85392572 400.09690722 -72.76427187 402.62382849 -78.3692627 403.4720459 C-82.12993124 403.66038819 -85.87315717 403.6964057 -89.63671875 403.6640625 C-91.02578657 403.66743672 -92.4148515 403.67229438 -93.8039093 403.67855835 C-96.70134867 403.6858941 -99.5980127 403.67532818 -102.49536133 403.65185547 C-106.20129755 403.62328705 -109.90542945 403.63984011 -113.61130047 403.66971779 C-116.47422311 403.6878133 -119.33671985 403.68202429 -122.19965553 403.66907883 C-123.56594879 403.66575508 -124.93228131 403.6697956 -126.29852867 403.68147659 C-138.27475143 403.76146163 -138.27475143 403.76146163 -141.62426758 400.64599609 C-143.25 398 -143.25 398 -143.25 395 C-148.53 395 -153.81 395 -159.25 395 C-159.91 396.65 -160.57 398.3 -161.25 400 C-162.44775391 401.78540039 -162.44775391 401.78540039 -164.25 403 C-168.62564753 403.57556006 -173.02515396 403.47221213 -177.43408203 403.44604492 C-179.5833734 403.43766235 -181.72988654 403.46607184 -183.87890625 403.49804688 C-196.35701056 403.56204132 -208.56844915 401.52808483 -218.25 393 C-225.31280603 385.5647413 -228.71790254 377.95264914 -228.65405273 367.75146484 C-228.66091599 366.96989517 -228.66777924 366.1883255 -228.67485046 365.3830719 C-228.69300272 362.82550377 -228.68929924 360.26855556 -228.68359375 357.7109375 C-228.68815969 355.92070315 -228.69346648 354.13047056 -228.69947815 352.34024048 C-228.70838538 348.59980111 -228.70601174 344.85957555 -228.69604492 341.11914062 C-228.68453219 336.33300202 -228.70481391 331.5475987 -228.73396206 326.76155663 C-228.75232688 323.06915631 -228.7520315 319.37693236 -228.74632454 315.68449783 C-228.7461715 313.91989736 -228.75220158 312.15528481 -228.76461601 310.390728 C-228.77953768 307.92326633 -228.76884307 305.4571659 -228.75170898 302.98974609 C-228.76137695 302.26647629 -228.77104492 301.54320648 -228.78100586 300.79801941 C-228.7078835 295.75497277 -227.41803208 292.88493189 -224.25 289 C-222 287.625 -222 287.625 -220.25 287 C-220.26047363 285.79690186 -220.27094727 284.59380371 -220.28173828 283.35424805 C-220.3185594 278.79356996 -220.34112084 274.2329043 -220.35986328 269.67211914 C-220.36978202 267.71636734 -220.38332119 265.76062978 -220.40087891 263.80493164 C-220.55217798 246.49008806 -219.55442069 229.67133633 -216 212.6875 C-215.78746582 211.64045898 -215.57493164 210.59341797 -215.35595703 209.51464844 C-213.72497386 201.7071261 -211.76178146 194.01490752 -209.39355469 186.3972168 C-204.20998075 168.8769496 -203.74588205 150.75236174 -203.875 132.625 C-203.87765869 131.54125092 -203.88031738 130.45750183 -203.88305664 129.34091187 C-203.93201139 112.27782897 -204.90499251 95.59533723 -206.96435547 78.65917969 C-208.0384799 68.65972391 -205.93926641 60.20179819 -200.01953125 52.03515625 C-195.13002628 46.41168586 -189.69359605 43.93544175 -182.546875 42.08984375 C-181.8964473 41.92118805 -181.24601959 41.75253235 -180.57588196 41.57876587 C-174.12544099 39.92627188 -167.63597309 38.44181875 -161.14550781 36.95629883 C-143.13016937 32.82882791 -125.3641056 28.13468224 -107.70892334 22.66670227 C-103.90247371 21.4902976 -100.08413604 20.39126763 -96.23828125 19.3515625 C-94.59615565 18.88090041 -92.95420723 18.40961935 -91.3125 17.9375 C-90.60899414 17.76516846 -89.90548828 17.59283691 -89.18066406 17.4152832 C-87.00145553 16.83915084 -87.00145553 16.83915084 -84.25 15 C-83.14953802 12.73873325 -82.47157423 10.58800809 -81.87768555 8.14624023 C-80.881717 4.74073284 -79.00932096 3.13220256 -76.25 1 C-71.04026875 -1.57257138 -66.33859131 -2.6837725 -60.59765625 -3.38671875 C-59.77986191 -3.49345413 -58.96206757 -3.60018951 -58.11949158 -3.7101593 C-56.39305188 -3.93269827 -54.66593962 -4.15007424 -52.93823242 -4.36254883 C-50.34920318 -4.68295775 -47.76367061 -5.02476057 -45.17773438 -5.36914062 C-12.47275656 -9.58901773 -12.47275656 -9.58901773 0 0 Z " fill="#272726" transform="translate(228.25,58)"/>
<path d="M0 0 C2.09765625 1.8359375 2.09765625 1.8359375 4.0625 4.375 C17.18142749 19.85140531 35.61620277 29.01260136 55 34 C55.89332031 34.24492187 56.78664062 34.48984375 57.70703125 34.7421875 C71.14651784 37.83221119 86.62014102 36.76883971 100 34 C101.14726562 33.78214844 102.29453125 33.56429687 103.4765625 33.33984375 C110.35421671 31.96880811 116.88943315 30.17879637 123.4765625 27.76953125 C126 27 126 27 130 27 C130.53682668 28.22226641 131.05375532 29.45328085 131.5625 30.6875 C131.85253906 31.37199219 132.14257812 32.05648437 132.44140625 32.76171875 C133.18465356 35.73990551 133.12915394 37.11384007 132 40 C129.41466272 41.49576103 127.10783551 42.5891334 124.3515625 43.6640625 C123.5832309 43.98281342 122.81489929 44.30156433 122.02328491 44.62997437 C119.56432531 45.64686081 117.09572868 46.63709293 114.625 47.625 C112.16334659 48.62408511 109.70418955 49.62866909 107.24813843 50.64144897 C105.7192489 51.27035204 104.18679378 51.8906717 102.65054321 52.50137329 C99.17122208 53.91823797 96.38374343 55.05745272 94 58 C93.50426663 61.89504791 93.41983152 64.09493717 95.5625 67.4375 C98.93178949 69.59730096 101.02480218 69.30191056 105 69 C107.71662948 68.06407302 110.20009714 67.09023602 112.796875 65.90234375 C113.51232483 65.58922745 114.22777466 65.27611115 114.96490479 64.95350647 C117.23213843 63.96018661 119.491525 62.95055981 121.75 61.9375 C124.02319866 60.92203539 126.29778761 59.91053725 128.57794189 58.91078186 C129.99224349 58.29038618 131.40256565 57.66082084 132.80828857 57.02122498 C137.66264409 54.88754803 137.66264409 54.88754803 141 56 C142.60546875 58.87109375 142.60546875 58.87109375 144.1875 62.4375 C144.71730469 63.61183594 145.24710938 64.78617187 145.79296875 65.99609375 C147 69 147 69 147 71 C145.3828125 72.40112305 145.3828125 72.40112305 143.125 74.01171875 C142.30386719 74.60533203 141.48273438 75.19894531 140.63671875 75.81054688 C139.76660156 76.42994141 138.89648438 77.04933594 138 77.6875 C133.04062307 81.23372114 128.11125316 84.79590193 123.41796875 88.69140625 C122.7736792 89.22580322 122.12938965 89.7602002 121.46557617 90.31079102 C119.68259267 92.36584063 119.42167816 93.55357457 119.3125 96.25 C119.78303726 99.79823458 119.78303726 99.79823458 121 102 C124.32324033 103.66162017 127.43169128 103.7005822 131 103 C134.52715636 101.12333909 137.5670351 98.73257981 140.6875 96.25 C141.92983398 95.29867187 141.92983398 95.29867187 143.19726562 94.328125 C146.49974261 91.78979201 149.75119734 89.20640432 152.95703125 86.546875 C155 85 155 85 157 85 C158.23681641 86.28515625 158.23681641 86.28515625 159.6015625 88.0625 C160.09140625 88.69414062 160.58125 89.32578125 161.0859375 89.9765625 C161.59382813 90.64429688 162.10171875 91.31203125 162.625 92 C163.140625 92.66773438 163.65625 93.33546875 164.1875 94.0234375 C165.46389136 95.6780189 166.73266232 97.33847368 168 99 C165.18902662 103.3351832 162.34838607 107.59257526 159.15234375 111.65625 C158.65452393 112.30005615 158.1567041 112.9438623 157.64379883 113.60717773 C156.64752232 114.88979766 155.63599718 116.16074729 154.6081543 117.41821289 C150.99203447 122.1166067 150.38154325 125.08679616 151 131 C151.83333333 133.16666667 151.83333333 133.16666667 154 134 C158.09384945 134.61993671 158.09384945 134.61993671 162 134 C166.10955609 130.47752336 169.11837187 126.28600109 172.1875 121.875 C172.84395508 120.94494141 172.84395508 120.94494141 173.51367188 119.99609375 C175.3759839 117.351895 177.20595381 114.69106929 179 112 C183.6409445 112.67244089 186.70399539 115.60045158 190.27050781 118.45410156 C192.70908943 120.37491234 194.92200046 121.96663414 197.78515625 123.19140625 C200.8258055 124.49729523 202.14672142 125.21553978 204 128 C205.42720851 135.52753376 205.74999013 144.91493268 202.703125 152.02734375 C200.18686849 154.94181517 198.11195996 155.89579975 194.26677895 156.2561264 C192.68460359 156.26052608 192.68460359 156.26052608 191.07046509 156.26501465 C189.85673218 156.27328781 188.64299927 156.28156097 187.39248657 156.29008484 C186.05023182 156.28926024 184.70797717 156.28826259 183.36572266 156.28710938 C181.94943855 156.29313526 180.53315802 156.30005993 179.11688232 156.30781555 C176.06670711 156.32270387 173.01659735 156.33145385 169.9663887 156.33552551 C165.13144685 156.34225144 160.29664398 156.36402519 155.46176147 156.38806152 C145.18287365 156.43703699 134.90395612 156.46928981 124.625 156.5 C113.5610773 156.53313655 102.49720894 156.56934037 91.43336904 156.62413073 C86.64029147 156.64730811 81.8473093 156.66117778 77.05418134 156.66762543 C74.05106412 156.67362457 71.04802262 156.6877735 68.04494476 156.70396996 C66.0175799 156.71251404 63.99018137 156.71143641 61.96279907 156.70991516 C30.7192266 156.91804519 1.50096764 166.90408717 -21.37890625 188.32421875 C-23.89972522 190.71042745 -23.89972522 190.71042745 -25.06860352 192.69067383 C-26.1640625 194.375 -26.1640625 194.375 -29 197 C-32.69083393 197.51689001 -36.15350168 196.89611787 -39.8125 196.3125 C-40.91384277 196.16111572 -42.01518555 196.00973145 -43.14990234 195.85375977 C-47.10874381 195.28618489 -51.05452657 194.65260228 -55 194 C-55.80552307 193.86775024 -56.61104614 193.73550049 -57.440979 193.59924316 C-67.10012434 192.00849814 -76.74768122 190.35142431 -86.3828125 188.62109375 C-87.50965202 188.42110275 -87.50965202 188.42110275 -88.65925598 188.21707153 C-93.49843826 187.33741789 -98.23906745 186.23606946 -103 185 C-103.07756778 178.56697539 -103.12921725 172.13407574 -103.16479492 165.70068359 C-103.17966304 163.52290341 -103.19996353 161.34515193 -103.22631836 159.16748047 C-103.4647848 138.92121185 -101.83346893 119.77782517 -96.15478516 100.30041504 C-88.14881059 72.58476073 -86.2643471 45.70900685 -86 17 C-84.99549805 16.78907715 -83.99099609 16.5781543 -82.95605469 16.36083984 C-64.01540035 12.38279106 -45.07777346 8.39243558 -26.15625 4.32421875 C-25.16238281 4.11200684 -24.16851562 3.89979492 -23.14453125 3.68115234 C-20.86849255 3.18812843 -18.59538687 2.68149912 -16.32421875 2.16650391 C-15.09316406 1.89112793 -13.86210938 1.61575195 -12.59375 1.33203125 C-10.91829102 0.95075073 -10.91829102 0.95075073 -9.20898438 0.56176758 C-6.03302928 0.00578213 -3.21507681 -0.23412295 0 0 Z " fill="#F1B448" transform="translate(129,160)"/>
<path d="M0 0 C7.1988541 0.61325939 14.26148731 1.63946399 21.375 2.890625 C23.58111508 3.27184998 25.787252 3.65294859 27.9934082 4.03393555 C29.70809799 4.33187515 29.70809799 4.33187515 31.45742798 4.63583374 C53.2620532 8.41604344 75.06553205 12.05581856 97 15 C97.84062988 15.11345764 98.68125977 15.22691528 99.54736328 15.34381104 C140.32164171 20.83329741 181.30084032 25.48839855 222.41153049 27.45942879 C228.35187254 27.7462061 234.28296504 28.07365041 240.21484375 28.50805664 C261.93246202 30.07077625 283.58070915 30.31175844 305.34863281 30.26074219 C310.27500065 30.24931683 315.20115324 30.2561639 320.12751389 30.26760292 C347.56565566 30.32200352 374.94370289 30.22554029 402.06201172 25.50537109 C404.29553803 25.11708344 406.53190679 24.75057972 408.76953125 24.38671875 C423.20640656 21.99514886 437.38599316 18.85526654 451.25 14.125 C452.26852051 13.78275391 453.28704102 13.44050781 454.33642578 13.08789062 C461.04739629 10.78918792 467.45859948 8.21275546 473.8046875 5.03125 C476 4 476 4 478 4 C478.07612856 10.60189418 478.12863283 17.20367494 478.16479492 23.8059082 C478.17987182 26.05139394 478.20033653 28.29685029 478.22631836 30.54223633 C478.26274918 33.77172099 478.27973755 37.00081594 478.29296875 40.23046875 C478.30845261 41.23272995 478.32393646 42.23499115 478.33988953 43.2676239 C478.34198669 51.9730416 478.34198669 51.9730416 475 56 C441.06308131 84.45142536 381.6259575 83.24472388 340.1875 83.65234375 C339.45749912 83.65958694 338.72749825 83.66683012 337.97537613 83.6742928 C331.06591887 83.74118185 324.15642563 83.79911249 317.24674988 83.83782101 C308.49521921 83.88758632 299.74646848 83.98133416 290.99607372 84.13173288 C284.78577336 84.23480616 278.57622865 84.28798554 272.36510181 84.3044911 C268.67497013 84.31565776 264.9881035 84.34840605 261.29891968 84.43562126 C238.88791446 84.94211505 238.88791446 84.94211505 234.10162354 81.72334671 C230.9860224 78.30107336 229.66899146 74.27498159 228 70 C222.46691456 64.49355389 212.88337084 64.80543587 205.5703125 64.078125 C204.1706777 63.92810059 202.77117351 63.77685321 201.37179565 63.62445068 C198.44945227 63.30935728 195.52630345 63.00436283 192.60205078 62.70751953 C188.87993035 62.3295377 185.16002167 61.93356005 181.44050789 61.53081131 C178.55313745 61.21897257 175.66515272 60.91319009 172.77691269 60.60951996 C171.40627499 60.46538773 170.03573983 60.3202765 168.66531754 60.17411041 C154.15273072 57.77501396 154.15273072 57.77501396 140.52734375 61.484375 C136.00700945 65.97002642 134.19725112 72.23359014 132.42871094 78.18896484 C132.02649323 79.54022964 132.02649323 79.54022964 131.6161499 80.91879272 C131.41282043 81.60559113 131.20949097 82.29238953 131 83 C130.28225403 83.00142502 129.56450806 83.00285004 128.82501221 83.00431824 C122.05654616 83.02215747 115.28859855 83.06379793 108.52046585 83.13209057 C105.0409002 83.1663632 101.56177367 83.19147076 98.08203125 83.19555664 C94.08019947 83.20065884 90.07968315 83.24575936 86.078125 83.29296875 C84.83009094 83.2890361 83.58205688 83.28510345 82.29620361 83.28105164 C81.13530212 83.30069473 79.97440063 83.32033783 78.77832031 83.34057617 C77.75683899 83.34723801 76.73535767 83.35389984 75.68292236 83.36076355 C72.02094218 84.23327155 70.99812835 85.89211296 69 89 C68.505 90.485 68.505 90.485 68 92 C62.72 92 57.44 92 52 92 C51.0234375 90.20963542 50.046875 88.41927083 49.0703125 86.62890625 C48.08589976 84.83381685 48.08589976 84.83381685 46 84 C44.15870521 83.88171475 42.31356412 83.82098071 40.46875 83.7890625 C39.34726562 83.76070313 38.22578125 83.73234375 37.0703125 83.703125 C34.72149927 83.65172865 32.37252237 83.6072644 30.0234375 83.5703125 C20.63199087 83.3135987 11.38907756 82.33349505 4 76 C-1.45057143 69.23778376 -0.50865098 61.47734364 -0.390625 53.22265625 C-0.3831556 51.68567138 -0.37746597 50.14867692 -0.37347412 48.61167908 C-0.35827253 44.58537045 -0.31903923 40.55964794 -0.2746582 36.53356934 C-0.23358636 32.41764248 -0.2154378 28.30162002 -0.1953125 24.18554688 C-0.15253854 16.1234303 -0.08435504 8.06178826 0 0 Z " fill="#C4893B" transform="translate(17,361)"/>
<path d="M0 0 C1.10472656 0.38671875 2.20945312 0.7734375 3.34765625 1.171875 C26.64491472 9.08591317 49.2564295 10.55988184 73.6875 10.5 C77.83208241 10.48994592 81.97626592 10.48482871 86.12080383 10.5098877 C88.67300614 10.52367854 91.22538151 10.52058735 93.7775116 10.49694824 C105.93278455 10.56790986 116.15384068 13.39200651 125 22 C133.37451381 30.93946117 136.53576069 39.28683015 136.140625 51.5078125 C136.09421875 52.33023438 136.0478125 53.15265625 136 54 C114.00673008 65.94826683 89.49605808 70.8198737 64.96977234 74.53581238 C62.07947522 74.9875777 59.1996831 75.48376438 56.31762695 75.98510742 C32.32808397 79.97406978 7.80294928 79.44227318 -16.4375 79.4375 C-17.89611513 79.43842525 -17.89611513 79.43842525 -19.38419724 79.4393692 C-89.74254042 79.4716309 -160.48939012 75.19761688 -230 64 C-217.05490303 48.01912409 -196.51174054 41.66954878 -177 38 C-176.22392269 37.82286154 -175.44784538 37.64572308 -174.64825058 37.46321678 C-171.64147716 36.93728924 -168.81765296 36.86912924 -165.76470947 36.86196899 C-164.50871948 36.85651566 -163.25272949 36.85106232 -161.9586792 36.84544373 C-160.57434087 36.84432408 -159.19000249 36.84327354 -157.80566406 36.84228516 C-156.34171395 36.83761373 -154.87776529 36.83246962 -153.41381836 36.82688904 C-150.26489652 36.81562878 -147.11598402 36.80718459 -143.96704865 36.80076981 C-138.9822083 36.79006434 -133.99743521 36.7698123 -129.01263428 36.74765015 C-114.83885789 36.68581277 -100.66508572 36.63174685 -86.49121094 36.59863281 C-78.66020458 36.58025744 -70.82931126 36.55128582 -62.99838805 36.5106281 C-58.85827426 36.48960866 -54.71830258 36.47410802 -50.57813263 36.47182083 C-46.68086592 36.46966521 -42.78389518 36.45370333 -38.88671875 36.42743111 C-37.46178573 36.4202716 -36.03681673 36.41812079 -34.61186981 36.42153358 C-24.52530669 36.44182083 -15.19992783 36.13836109 -7.5703125 28.828125 C-0.17759452 20.2216772 -0.13802162 10.81587607 0 0 Z " fill="#FBCB53" transform="translate(350,296)"/>
<path d="M0 0 C2.58235212 2.56061349 3.59400129 5.00673332 4.97511292 8.36714172 C5.23044076 8.98535954 5.4857686 9.60357737 5.74883366 10.24052906 C8.38026312 16.69454295 10.70259351 23.25533799 12.97096252 29.84443665 C13.41595453 31.12429506 13.86144732 32.40397945 14.30740356 33.6835022 C15.46794869 37.01677429 16.62285618 40.35196844 17.77613831 43.6877594 C19.61122714 48.992814 21.45457998 54.29500309 23.29855728 59.59697342 C23.96563592 61.5166084 24.63097265 63.43684137 25.29624939 65.35710144 C28.09566244 73.41094603 30.97328408 81.43008533 34.08630371 89.36877441 C35.48904922 93.04355155 36.38694598 96.07100523 36.03736877 100.0202179 C6.12462641 109.49054309 -21.25734864 113.96148647 -50.23606873 99.1061554 C-54.91079579 96.57313286 -58.99840001 93.55541976 -62.96263123 90.0202179 C-64.14786473 89.03830897 -65.3351323 88.05884605 -66.52513123 87.0827179 C-67.32950623 86.4020929 -68.13388123 85.7214679 -68.96263123 85.0202179 C-67.65857347 82.41210239 -66.37177345 82.10711684 -63.77513123 80.8327179 C-56.76615705 77.00559549 -52.37479958 71.74093379 -49.71922302 64.16914368 C-48.84217434 60.51887783 -48.7034785 57.06595099 -48.73606873 53.33662415 C-48.73969421 52.59913437 -48.7433197 51.86164459 -48.74705505 51.10180664 C-48.87176901 42.44812581 -49.90184718 33.91243184 -50.96263123 25.3327179 C-51.25107944 22.94116274 -51.5366367 20.54931223 -51.81858826 18.15698242 C-51.9923817 16.68838246 -52.17016084 15.22024619 -52.35276794 13.75271606 C-52.82641712 9.81708575 -53.04903135 5.9834379 -52.96263123 2.0202179 C-47.39489319 1.30253894 -41.82645637 0.59064662 -36.25730896 -0.11601257 C-34.36485579 -0.35695551 -32.47259923 -0.59944811 -30.58055115 -0.84355164 C-27.85295148 -1.1951759 -25.12468147 -1.54112734 -22.39622498 -1.8860321 C-21.5574028 -1.995401 -20.71858063 -2.1047699 -19.8543396 -2.217453 C-5.60913564 -3.99927988 -5.60913564 -3.99927988 0 0 Z " fill="#FACA53" transform="translate(215.96263122558594,70.97978210449219)"/>
<path d="M0 0 C4.87880242 36.7207735 4.87880242 36.7207735 1.25 42.6875 C-3.02771329 47.08403866 -6.61986465 48.66015876 -12.59765625 49.90234375 C-13.33969299 50.06486633 -14.08172974 50.22738892 -14.84625244 50.39483643 C-17.24968667 50.9187446 -19.65591701 51.42827113 -22.0625 51.9375 C-23.71982927 52.29578036 -25.37697445 52.65491335 -27.03393555 53.01489258 C-31.68661354 54.02267265 -36.34280728 55.01333032 -41 56 C-42.04994141 56.22365234 -43.09988281 56.44730469 -44.18164062 56.67773438 C-47.9785666 57.48589263 -51.77722384 58.28498204 -55.578125 59.07421875 C-60.9129797 60.18503445 -66.23765316 61.34231115 -71.5625 62.5 C-72.52833008 62.70931152 -73.49416016 62.91862305 -74.48925781 63.13427734 C-79.08236036 64.13294685 -83.67038328 65.14812518 -88.25 66.20703125 C-89.06525146 66.39394531 -89.88050293 66.58085937 -90.72045898 66.7734375 C-92.22908928 67.12067566 -93.7365314 67.47313824 -95.24243164 67.83203125 C-99.23905596 68.74914834 -102.90138844 69.17264042 -107 69 C-107.75043324 62.33990495 -108.42707719 55.67781741 -109 49 C-109.06316406 48.27119629 -109.12632813 47.54239258 -109.19140625 46.79150391 C-110.05905954 35.4536114 -110.05905954 35.4536114 -106.25 30.75 C-102.55911048 27.13367391 -98.57053503 25.76632496 -93.58203125 24.703125 C-92.5055835 24.46996582 -91.42913574 24.23680664 -90.32006836 23.99658203 C-89.1625708 23.75020996 -88.00507324 23.50383789 -86.8125 23.25 C-84.35125388 22.71234835 -81.8903225 22.17325415 -79.4296875 21.6328125 C-78.18413086 21.35985352 -76.93857422 21.08689453 -75.65527344 20.80566406 C-58.19699975 16.95766091 -41.11951788 12.40406481 -24.08398438 6.97558594 C-19.7313984 5.59869126 -15.36555783 4.26597784 -10.99902344 2.93408203 C-8.90372607 2.28147639 -6.81890995 1.59467539 -4.74316406 0.88232422 C-2 0 -2 0 0 0 Z " fill="#474750" transform="translate(148,91)"/>
</svg>
